# xmcd
#
# Track frame offsets: 
#        150
#        15949
#        28823
#        42822
#        56746
#        68945
#        83394
#        94468
#        108767
#        120816
#        133615
#        145364
#        158313
#        168787
#        182111
#        194610
#
# Disc length: 2767 seconds
#
# Revision: 0
# Processed by: cddbd v1.5.2PL0 Copyright (c) Steve Scherf et al.
# Submitted via: ExactAudioCopy v1.0b4
#
DISCID=c50acd10
DTITLE=Muddy Waters - Original Hits and Rarities 1941-1961 I'm Your Hooc
DTITLE=hie Coochie Man
DYEAR=1900
DGENRE=Blues
TTITLE0=Lonesome Day
TTITLE1=Stuff You Gotta Watch
TTITLE2=Who's Gonna Be Your Sweet Man
TTITLE3=Mad Love
TTITLE4=Flood
TTITLE5=Blow Wind Blow
TTITLE6=Loving Man
TTITLE7=Sad, Sad Day
TTITLE8=My Life Is Ruined
TTITLE9=Turn The Lamp Down Low
TTITLE10=She's All Right
TTITLE11=Just Make Love to Me
TTITLE12=She's So Pretty
TTITLE13=Oh Yeh
TTITLE14=Ooh Wee
TTITLE15=I'm Your Hoochie Coochie Man
EXTD=
EXTT0=
EXTT1=
EXTT2=
EXTT3=
EXTT4=
EXTT5=
EXTT6=
EXTT7=
EXTT8=
EXTT9=
EXTT10=
EXTT11=
EXTT12=
EXTT13=
EXTT14=
EXTT15=
PLAYORDER=
